<svg width="48" height="48" viewBox="0 0 70 70" fill="none" xmlns="http://www.w3.org/2000/svg">
<rect x="8.08691" y="6.72569" width="53.3694" height="56.6039" rx="10" transform="rotate(-0.275422 8.08691 6.72569)" fill="#646464"/>
<path fill-rule="evenodd" clip-rule="evenodd" d="M21.4936 44.7874C23.3894 47.823 36.642 54.5327 45.0547 45.8975C50.0335 40.7866 53.6204 29.9267 47.8267 17.3892C27.4812 21.0625 22.319 28.4266 21.4936 44.7874Z" fill="#7AC143"/>
<path fill-rule="evenodd" clip-rule="evenodd" d="M45.8813 26.9716C45.8813 26.9716 32.2338 43.0272 14.5845 46.4696L15.3124 47.8704C15.3124 47.8704 34 46.1792 45.8813 26.9716Z" fill="#3F8640"/>
<path fill-rule="evenodd" clip-rule="evenodd" d="M29.5155 34.0068C29.5063 34.0244 25.9246 41.3355 25.4475 43.7228L27.4544 43.0488C27.9055 40.7999 29.5063 34.024 29.5155 34.0068Z" fill="#3F8640"/>
<path fill-rule="evenodd" clip-rule="evenodd" d="M36.4573 31.8219C36.4484 31.8338 33.1769 36.9876 32.6201 38.7131L34.1615 38.3435C34.6865 36.7178 36.4484 31.8337 36.4573 31.8219Z" fill="#3F8640"/>
<path fill-rule="evenodd" clip-rule="evenodd" d="M41.7286 38.9601C41.7054 38.9611 32.6859 39.5643 30.0748 40.2667L31.7154 41.4367C34.1752 40.7747 41.7061 38.9611 41.7286 38.9601Z" fill="#3F8640"/>
<path fill-rule="evenodd" clip-rule="evenodd" d="M40.6912 29.6803C40.6872 29.6894 39.114 33.4746 38.9498 34.6947L39.9422 34.3069C40.0968 33.1574 40.6871 29.6895 40.6912 29.6803Z" fill="#3F8640"/>
<path fill-rule="evenodd" clip-rule="evenodd" d="M45.7793 33.9504C45.7646 33.9513 39.6009 34.3632 37.817 34.8426L38.9378 35.6423C40.6193 35.1905 45.7654 33.9509 45.7793 33.9504Z" fill="#3F8640"/>
<rect x="11.2235" width="59.8384" height="59.8384" rx="10" transform="rotate(10.8107 11.2235 0)" fill="#646464" fill-opacity="0.3"/>
<rect x="8.08691" y="6.72569" width="53.3694" height="56.6039" rx="10" transform="rotate(-0.275422 8.08691 6.72569)" fill="#646464"/>
<path fill-rule="evenodd" clip-rule="evenodd" d="M21.4924 44.7874C23.3882 47.823 36.6408 54.5327 45.0535 45.8975C50.0323 40.7866 53.6192 29.9267 47.8255 17.3892C27.48 21.0625 22.3178 28.4266 21.4924 44.7874Z" fill="#7AC143"/>
<path fill-rule="evenodd" clip-rule="evenodd" d="M45.88 26.9716C45.88 26.9716 32.2326 43.0272 14.5832 46.4696L15.3111 47.8704C15.3111 47.8704 33.9988 46.1792 45.88 26.9716Z" fill="#3F8640"/>
<path fill-rule="evenodd" clip-rule="evenodd" d="M29.5142 34.0068C29.505 34.0244 25.9234 41.3355 25.4462 43.7228L27.4532 43.0488C27.9043 40.7999 29.5051 34.024 29.5142 34.0068Z" fill="#3F8640"/>
<path fill-rule="evenodd" clip-rule="evenodd" d="M36.456 31.8219C36.4472 31.8338 33.1757 36.9876 32.6188 38.7131L34.1602 38.3435C34.6852 36.7178 36.4472 31.8337 36.456 31.8219Z" fill="#3F8640"/>
<path fill-rule="evenodd" clip-rule="evenodd" d="M41.7274 38.9601C41.7042 38.9611 32.6847 39.5643 30.0736 40.2667L31.7142 41.4367C34.174 40.7747 41.7048 38.9611 41.7274 38.9601Z" fill="#3F8640"/>
<path fill-rule="evenodd" clip-rule="evenodd" d="M40.69 29.6803C40.686 29.6894 39.1127 33.4746 38.9486 34.6947L39.9409 34.3069C40.0956 33.1574 40.6859 29.6895 40.69 29.6803Z" fill="#3F8640"/>
<path fill-rule="evenodd" clip-rule="evenodd" d="M45.778 33.9504C45.7634 33.9513 39.5997 34.3632 37.8158 34.8426L38.9365 35.6423C40.618 35.1905 45.7642 33.9509 45.778 33.9504Z" fill="#3F8640"/>
</svg>
